<?xml version="1.0" standalone="no"?><!DOCTYPE svg PUBLIC "-//W3C//DTD SVG 1.1//EN" "http://www.w3.org/Graphics/SVG/1.1/DTD/svg11.dtd"><svg t="1581177685377" class="icon" viewBox="0 0 1024 1024" version="1.1" xmlns="http://www.w3.org/2000/svg" p-id="17345" xmlns:xlink="http://www.w3.org/1999/xlink" width="32" height="32"><defs><style type="text/css">@font-face { font-family: element-icons; src: url("chrome-extension://moombeodfomdpjnpocobemoiaemednkg/fonts/element-icons.woff") format("woff"), url("chrome-extension://moombeodfomdpjnpocobemoiaemednkg/fonts/element-icons.ttf ") format("truetype"); }
</style></defs><path d="M523.1 823.8L211.8 512.5 706.1 123c29.8-23.4 67.5-34.4 105.2-30.4l3.7 0.4c69.8 7.3 124.5 63.5 129.8 133.5 2.8 36.4-8.2 72.4-30.8 101.1L523.1 823.8z" fill="#FFCE31" p-id="17346"></path><path d="M861.5 145.9c1.9 37.3-10.4 74.6-34.3 104.6L437.9 738.6l85.2 85.2 391-496.2c22.6-28.6 33.5-64.7 30.8-101.1-4.4-57-41.3-104.8-92.5-124.6 5.1 13.8 8.4 28.5 9.1 44z" fill="#F28400" p-id="17347"></path><path d="M523.1 848.8c-6.6 0-13-2.6-17.7-7.3L194.1 530.1c-5.1-5.1-7.7-12-7.3-19.2 0.4-7.1 3.9-13.7 9.5-18.2l421.3-331.9c10.8-8.5 26.6-6.7 35.1 4.2 8.5 10.8 6.7 26.6-4.2 35.1L249.3 514.7l271.5 271.5 373.5-474.1c18.7-23.8 27.8-53.5 25.5-83.7-4.4-58-49.6-104.5-107.5-110.6l-3.7-0.4c-31.4-3.3-62.3 5.6-87.1 25.2-10.8 8.5-26.6 6.7-35.1-4.2-8.5-10.8-6.7-26.6 4.2-35.1 35.1-27.6 78.8-40.3 123.3-35.6l3.7 0.4c81.9 8.6 145.9 74.4 152.1 156.5 3.3 42.7-9.5 84.8-36.1 118.4l-391 496.2c-4.4 5.6-11 9.1-18.2 9.5-0.3 0.1-0.8 0.1-1.3 0.1z" fill="#231E21" p-id="17348"></path><path d="M411.3 583.7c-3.8 0-7.7-1.5-10.6-4.4-5.9-5.9-5.9-15.4 0-21.2l442.4-442.4c5.9-5.9 15.4-5.9 21.2 0 5.9 5.9 5.9 15.4 0 21.2L421.9 579.3c-2.9 3-6.8 4.4-10.6 4.4z" fill="#231E21" p-id="17349"></path><path d="M395.3 193.7c-127.1 43.4-262 256.4-303.4 411-28.4 106-8 166.1 36.2 226 42.6 57.8 114.4 77 180.1 48.3 68.2-29.8 115.9-71.6 144.3-177.6 41.4-154.6 31.2-406.5-57.2-507.7z" fill="#8CBF1D" p-id="17350"></path><path d="M329.4 868.9c56.9-29.4 97.7-72.8 123.1-167.5 12.8-47.7 20.6-104.7 22.8-163.6-39.7-18.7-79.2-33.6-115.5-43.3-106-28.4-166.1-8-226 36.2-9.9 7.3-18.6 15.5-26.2 24.4-6.2 17-11.5 33.7-15.8 49.7-8.8 33-12.9 61.5-13.1 87 1.9 6.4 4.1 12.8 6.8 19.1 29.8 68.2 71.6 115.9 177.6 144.3 20.6 5.5 42.9 10 66.3 13.7z" fill="#67A800" p-id="17351"></path><path d="M246.7 917.1c-53.5 0-104.5-25.1-138.8-71.5-27.2-36.9-42.5-69.5-49.7-105.7-8.1-41.1-5-87.4 9.5-141.6 12.2-45.6 32.3-96.4 58.1-146.8 6.3-12.3 21.3-17.2 33.6-10.9 12.3 6.3 17.2 21.4 10.9 33.6-24.2 47.3-43 94.7-54.3 137-12.5 46.6-15.4 85.5-8.7 119 5.7 28.6 18.3 55 40.9 85.7 17.5 23.7 40.9 40.1 67.7 47.3 26.8 7.2 55.3 4.7 82.3-7.1 34.9-15.3 59.1-31.8 78.3-53.8 22.4-25.6 39.4-60.8 51.9-107.4 20.2-75.3 27.4-174.4 19.3-265.2-7.9-89.2-29.2-161.3-60.5-205.8-37.7 17.5-78.6 52.1-119.4 100.9-8.8 10.6-24.6 12-35.2 3.2-10.6-8.8-12-24.6-3.2-35.2 52.5-63 107.1-105.5 157.8-122.8 9.6-3.3 20.2-0.4 26.9 7.2 23.4 26.8 42.6 63.5 57.1 109.2 12.9 40.7 21.7 87.4 26.3 138.9 8.6 96.3 0.8 202-20.8 282.6-14.5 54.2-35 95.9-62.6 127.4-24.3 27.7-53.9 48.3-95.9 66.6-23.5 10.3-47.7 15.2-71.5 15.2z" fill="#231E21" p-id="17352"></path><path d="M184.8 422.8c-4.5 0-9.1-1.2-13.2-3.8-11.7-7.3-15.3-22.7-8-34.4 4.4-7 8.8-14 13.3-20.7 7.6-11.5 23.1-14.7 34.6-7.1s14.7 23.1 7.1 34.6c-4.2 6.4-8.4 13-12.5 19.6-4.7 7.6-12.9 11.8-21.3 11.8z" fill="#231E21" p-id="17353"></path><path d="M817.2 615.7c-101.1-88.4-353-98.7-507.7-57.2-106 28.4-147.8 76.2-177.6 144.3-28.7 65.8-9.5 137.5 48.3 180.1 59.9 44.2 119.9 64.6 226 36.2 154.6-41.4 367.7-176.3 411-303.4z" fill="#8CBF1D" p-id="17354"></path><path d="M817.2 615.7c-20.7-18.1-47.8-32.9-79-44.6-77.4 106.4-247.9 206.8-377.5 241.5-106 28.4-166.1 8-226-36.2-5.7-4.2-10.9-8.8-15.8-13.5-0.5 46.3 21 90.3 61.3 120 59.9 44.2 119.9 64.6 226 36.2 154.6-41.4 367.6-176.3 411-303.4z" fill="#67A800" p-id="17355"></path><path d="M317.7 957.2c-16.3 0-31.8-1.5-46.7-4.4-36.2-7.2-68.7-22.5-105.7-49.7-67-49.4-89.7-133.9-56.3-210.3 18.4-42 38.9-71.6 66.6-95.9 31.5-27.6 73.2-48.1 127.4-62.6 80.6-21.6 186.3-29.4 282.6-20.8 51.4 4.6 98.2 13.4 138.9 26.3 45.6 14.5 82.4 33.7 109.2 57.1 7.6 6.7 10.5 17.3 7.2 26.9-17.6 51.6-61.2 107.2-126.1 160.6-56.6 46.6-127.3 89.8-199.2 121.8-12.6 5.6-27.4-0.1-33-12.7-5.6-12.6 0.1-27.4 12.7-33 67.8-30.2 134.5-70.9 187.7-114.7 50.6-41.6 86.2-83.4 104-121.9-44.5-31.3-116.6-52.6-205.8-60.5-90.8-8.1-190-0.9-265.2 19.3-46.6 12.5-81.8 29.5-107.4 51.9-21.9 19.2-38.5 43.3-53.8 78.3-11.8 27-14.2 55.5-7.1 82.3s23.5 50.2 47.2 67.7c30.7 22.6 57.1 35.2 85.7 40.9 33.4 6.6 72.3 3.8 119-8.7 13.3-3.6 27 4.3 30.6 17.7 3.6 13.3-4.3 27-17.7 30.6-34.5 9.1-65.9 13.8-94.8 13.8zM908.2 339c-3.8 0-7.7-1.5-10.6-4.4L692.7 129.8c-5.9-5.9-5.9-15.4 0-21.2 5.9-5.9 15.4-5.9 21.2 0l204.8 204.8c5.9 5.9 5.9 15.4 0 21.2-2.9 3-6.7 4.4-10.5 4.4zM761.5 520.1c-3.8 0-7.7-1.5-10.6-4.4l-222-222c-5.9-5.9-5.9-15.4 0-21.2 5.9-5.9 15.4-5.9 21.2 0l222.1 222.1c5.9 5.9 5.9 15.4 0 21.2-3 2.8-6.8 4.3-10.7 4.3z" fill="#231E21" p-id="17356"></path><path d="M306.2 680.1c-9 0-17.7-4.9-22.2-13.5-6.4-12.2-1.6-27.3 10.6-33.7 66.2-34.4 120-34.8 122.3-34.8v50h0.1c-0.4 0-44.7 0.7-99.4 29.2-3.5 1.9-7.5 2.8-11.4 2.8z" fill="#FFFFFF" p-id="17357"></path><path d="M505.6 628.4h-9.8c-13.8 0-25-11.2-25-25s11.2-25 25-25h9.8c13.8 0 25 11.2 25 25s-11.2 25-25 25z" fill="#FFFFFF" p-id="17358"></path></svg>